<svg width="114" height="16" viewBox="0 0 114 16" fill="none" xmlns="http://www.w3.org/2000/svg">
<path d="M0 9.71265C0 8.71653 0.198419 7.83442 0.595257 7.06633C1.00377 6.29823 1.55234 5.70416 2.24097 5.28411C2.94127 4.85206 3.71744 4.63603 4.56947 4.63603C5.19974 4.63603 5.81834 4.78005 6.42527 5.06809C7.04387 5.34412 7.53408 5.71616 7.89591 6.18422V1.39564H9.90928V14.7173H7.89591V13.2231C7.5691 13.7031 7.1139 14.0992 6.53032 14.4112C5.9584 14.7233 5.29895 14.8793 4.55196 14.8793C3.7116 14.8793 2.94127 14.6632 2.24097 14.2312C1.55234 13.7871 1.00377 13.1751 0.595257 12.395C0.198419 11.6029 0 10.7088 0 9.71265ZM7.89591 9.74865C7.89591 9.06457 7.75585 8.4705 7.47573 7.96644C7.20728 7.46237 6.85129 7.07833 6.40776 6.8143C5.96424 6.55026 5.4857 6.41825 4.97214 6.41825C4.45859 6.41825 3.98005 6.55026 3.53653 6.8143C3.093 7.06633 2.73118 7.44437 2.45106 7.94843C2.18261 8.44049 2.04838 9.02856 2.04838 9.71265C2.04838 10.3967 2.18261 10.9968 2.45106 11.5129C2.73118 12.0289 3.093 12.425 3.53653 12.701C3.99172 12.965 4.47026 13.0971 4.97214 13.0971C5.4857 13.0971 5.96424 12.965 6.40776 12.701C6.85129 12.437 7.20728 12.0529 7.47573 11.5489C7.75585 11.0328 7.89591 10.4327 7.89591 9.74865Z" fill="white"/>
<path d="M21.3721 9.51462C21.3721 9.88667 21.3487 10.2227 21.302 10.5227H13.9314C13.9897 11.3148 14.2757 11.9509 14.7892 12.431C15.3028 12.911 15.9331 13.1511 16.68 13.1511C17.7538 13.1511 18.5125 12.689 18.956 11.7649H21.1095C20.8177 12.677 20.2866 13.4271 19.5163 14.0152C18.7576 14.5912 17.8122 14.8793 16.68 14.8793C15.758 14.8793 14.9293 14.6692 14.194 14.2492C13.4703 13.8171 12.8984 13.2171 12.4782 12.449C12.0697 11.6689 11.8655 10.7688 11.8655 9.74865C11.8655 8.72853 12.0639 7.83442 12.4607 7.06633C12.8692 6.28623 13.4353 5.68616 14.159 5.26611C14.8943 4.84606 15.7346 4.63603 16.68 4.63603C17.5904 4.63603 18.4016 4.84006 19.1136 5.24811C19.8256 5.65616 20.38 6.23223 20.7768 6.97632C21.1737 7.7084 21.3721 8.55451 21.3721 9.51462ZM19.2887 8.86654C19.277 8.11045 19.0144 7.50438 18.5008 7.04832C17.9873 6.59227 17.3512 6.36424 16.5925 6.36424C15.9039 6.36424 15.3145 6.59227 14.8242 7.04832C14.334 7.49238 14.0422 8.09845 13.9489 8.86654H19.2887Z" fill="white"/>
<path d="M27.0653 12.881L29.7965 4.79805H31.9149L28.2383 14.7173H25.8573L22.1982 4.79805H24.3341L27.0653 12.881Z" fill="white"/>
<path d="M34.2289 14.8433C33.8671 14.8433 33.5636 14.7173 33.3185 14.4652C33.0734 14.2132 32.9509 13.9012 32.9509 13.5291C32.9509 13.1571 33.0734 12.845 33.3185 12.593C33.5636 12.341 33.8671 12.2149 34.2289 12.2149C34.5791 12.2149 34.8767 12.341 35.1218 12.593C35.3669 12.845 35.4894 13.1571 35.4894 13.5291C35.4894 13.9012 35.3669 14.2132 35.1218 14.4652C34.8767 14.7173 34.5791 14.8433 34.2289 14.8433Z" fill="white"/>
<path d="M41.6908 6.47225H39.905V14.7173H37.8917V6.47225H36.7537V4.79805H37.8917V4.09597C37.8917 2.95583 38.1835 2.12773 38.7671 1.61167C39.3623 1.0836 40.2902 0.819572 41.5508 0.819572V2.52978C40.9438 2.52978 40.5178 2.64979 40.2727 2.88982C40.0276 3.11785 39.905 3.5199 39.905 4.09597V4.79805H41.6908V6.47225Z" fill="white"/>
<path d="M44.4751 3.48389C44.1132 3.48389 43.8098 3.35788 43.5647 3.10585C43.3196 2.85382 43.197 2.54178 43.197 2.16974C43.197 1.79769 43.3196 1.48565 43.5647 1.23362C43.8098 0.981592 44.1132 0.855576 44.4751 0.855576C44.8252 0.855576 45.1228 0.981592 45.3679 1.23362C45.6131 1.48565 45.7356 1.79769 45.7356 2.16974C45.7356 2.54178 45.6131 2.85382 45.3679 3.10585C45.1228 3.35788 44.8252 3.48389 44.4751 3.48389ZM45.4555 4.79805V14.7173H43.4596V4.79805H45.4555Z" fill="white"/>
<path d="M52.943 4.63603C53.7016 4.63603 54.3786 4.79805 54.9738 5.12209C55.5808 5.44613 56.0535 5.92619 56.392 6.56227C56.7304 7.19834 56.8997 7.96644 56.8997 8.86654V14.7173H54.9213V9.17258C54.9213 8.28447 54.7054 7.60639 54.2735 7.13834C53.8417 6.65828 53.2523 6.41825 52.5053 6.41825C51.7583 6.41825 51.163 6.65828 50.7195 7.13834C50.2877 7.60639 50.0717 8.28447 50.0717 9.17258V14.7173H48.0759V4.79805H50.0717V5.93219C50.3985 5.52414 50.8129 5.2061 51.3148 4.97807C51.8283 4.75005 52.3711 4.63603 52.943 4.63603Z" fill="white"/>
<path d="M58.7802 9.71265C58.7802 8.71653 58.9787 7.83442 59.3755 7.06633C59.784 6.29823 60.3326 5.70416 61.0212 5.28411C61.7215 4.85206 62.4918 4.63603 63.3322 4.63603C64.0909 4.63603 64.7503 4.79205 65.3106 5.10409C65.8825 5.40413 66.3377 5.78217 66.6761 6.23823V4.79805H68.6895V14.7173H66.6761V13.2411C66.3377 13.7091 65.8766 14.0992 65.2931 14.4112C64.7095 14.7233 64.0442 14.8793 63.2972 14.8793C62.4685 14.8793 61.7098 14.6632 61.0212 14.2312C60.3326 13.7871 59.784 13.1751 59.3755 12.395C58.9787 11.6029 58.7802 10.7088 58.7802 9.71265ZM66.6761 9.74865C66.6761 9.06457 66.5361 8.4705 66.256 7.96644C65.9875 7.46237 65.6315 7.07833 65.188 6.8143C64.7445 6.55026 64.2659 6.41825 63.7524 6.41825C63.2388 6.41825 62.7603 6.55026 62.3168 6.8143C61.8732 7.06633 61.5114 7.44437 61.2313 7.94843C60.9628 8.44049 60.8286 9.02856 60.8286 9.71265C60.8286 10.3967 60.9628 10.9968 61.2313 11.5129C61.5114 12.0289 61.8732 12.425 62.3168 12.701C62.772 12.965 63.2505 13.0971 63.7524 13.0971C64.2659 13.0971 64.7445 12.965 65.188 12.701C65.6315 12.437 65.9875 12.0529 66.256 11.5489C66.5361 11.0328 66.6761 10.4327 66.6761 9.74865Z" fill="white"/>
<path d="M76.1781 4.63603C76.9368 4.63603 77.6137 4.79805 78.209 5.12209C78.8159 5.44613 79.2886 5.92619 79.6271 6.56227C79.9656 7.19834 80.1348 7.96644 80.1348 8.86654V14.7173H78.1564V9.17258C78.1564 8.28447 77.9405 7.60639 77.5087 7.13834C77.0768 6.65828 76.4874 6.41825 75.7404 6.41825C74.9934 6.41825 74.3982 6.65828 73.9546 7.13834C73.5228 7.60639 73.3069 8.28447 73.3069 9.17258V14.7173H71.311V4.79805H73.3069V5.93219C73.6337 5.52414 74.048 5.2061 74.5499 4.97807C75.0634 4.75005 75.6062 4.63603 76.1781 4.63603Z" fill="white"/>
<path d="M82.0154 9.74865C82.0154 8.72853 82.2138 7.83442 82.6106 7.06633C83.0191 6.28623 83.5794 5.68616 84.2913 5.26611C85.0033 4.84606 85.8203 4.63603 86.7424 4.63603C87.9096 4.63603 88.8725 4.92407 89.6311 5.50014C90.4015 6.06421 90.9209 6.8743 91.1893 7.93043H89.0359C88.8608 7.43837 88.5807 7.05433 88.1955 6.77829C87.8104 6.50226 87.326 6.36424 86.7424 6.36424C85.9254 6.36424 85.2718 6.66428 84.7816 7.26435C84.303 7.85242 84.0637 8.68052 84.0637 9.74865C84.0637 10.8168 84.303 11.6509 84.7816 12.251C85.2718 12.851 85.9254 13.1511 86.7424 13.1511C87.8979 13.1511 88.6624 12.629 89.0359 11.5849H91.1893C90.9092 12.593 90.384 13.3971 89.6136 13.9972C88.8433 14.5852 87.8862 14.8793 86.7424 14.8793C85.8203 14.8793 85.0033 14.6692 84.2913 14.2492C83.5794 13.8171 83.0191 13.2171 82.6106 12.449C82.2138 11.6689 82.0154 10.7688 82.0154 9.74865Z" fill="white"/>
<path d="M102.02 9.51462C102.02 9.88667 101.996 10.2227 101.95 10.5227H94.5789C94.6373 11.3148 94.9233 11.9509 95.4368 12.431C95.9504 12.911 96.5806 13.1511 97.3276 13.1511C98.4014 13.1511 99.1601 12.689 99.6036 11.7649H101.757C101.465 12.677 100.934 13.4271 100.164 14.0152C99.4052 14.5912 98.4598 14.8793 97.3276 14.8793C96.4056 14.8793 95.5769 14.6692 94.8416 14.2492C94.1179 13.8171 93.546 13.2171 93.1258 12.449C92.7173 11.6689 92.5131 10.7688 92.5131 9.74865C92.5131 8.72853 92.7115 7.83442 93.1083 7.06633C93.5168 6.28623 94.0829 5.68616 94.8065 5.26611C95.5419 4.84606 96.3822 4.63603 97.3276 4.63603C98.238 4.63603 99.0492 4.84006 99.7612 5.24811C100.473 5.65616 101.028 6.23223 101.424 6.97632C101.821 7.7084 102.02 8.55451 102.02 9.51462ZM99.9363 8.86654C99.9246 8.11045 99.662 7.50438 99.1484 7.04832C98.6349 6.59227 97.9988 6.36424 97.2401 6.36424C96.5515 6.36424 95.962 6.59227 95.4718 7.04832C94.9816 7.49238 94.6898 8.09845 94.5964 8.86654H99.9363Z" fill="white"/>
<path d="M34.2291 14.8433C33.8673 14.8433 33.5638 14.7173 33.3187 14.4653C33.0736 14.2132 32.951 13.9012 32.951 13.5291C32.951 13.1571 33.0736 12.8451 33.3187 12.593C33.5638 12.341 33.8673 12.215 34.2291 12.215C34.5793 12.215 34.8769 12.341 35.122 12.593C35.3671 12.8451 35.4896 13.1571 35.4896 13.5291C35.4896 13.9012 35.3671 14.2132 35.122 14.4653C34.8769 14.7173 34.5793 14.8433 34.2291 14.8433Z" fill="#49AA26"/>
<path d="M114 11.0551C114 11.5633 113.853 12.041 113.558 12.4882C113.276 12.9354 112.851 13.3114 112.286 13.6163C111.732 13.9212 111.073 14.1042 110.307 14.1651V15.4H109.158V14.1651C108.051 14.0737 107.156 13.7738 106.473 13.2657C105.789 12.7575 105.448 12.0867 105.448 11.2533H107.603C107.639 11.6497 107.786 11.98 108.045 12.2442C108.304 12.4983 108.675 12.6609 109.158 12.7321V9.37813C108.369 9.20535 107.727 9.03257 107.232 8.85979C106.738 8.67685 106.314 8.39227 105.96 8.00606C105.619 7.61985 105.448 7.09134 105.448 6.42055C105.448 5.57698 105.789 4.88078 106.473 4.33195C107.156 3.77296 108.051 3.44773 109.158 3.35626V2.1214H110.307V3.35626C111.344 3.43757 112.174 3.72215 112.798 4.20999C113.435 4.68768 113.794 5.3483 113.876 6.19187H111.721C111.685 5.87681 111.544 5.59731 111.297 5.35339C111.049 5.0993 110.719 4.92652 110.307 4.83505V8.12802C111.096 8.29064 111.738 8.46342 112.233 8.64636C112.728 8.81914 113.146 9.09863 113.488 9.48485C113.829 9.8609 114 10.3843 114 11.0551ZM107.497 6.32908C107.497 6.74579 107.639 7.07102 107.922 7.30478C108.216 7.53854 108.628 7.72656 109.158 7.86885V4.78931C108.652 4.84013 108.245 4.99766 107.939 5.26192C107.645 5.52617 107.497 5.88189 107.497 6.32908ZM110.307 12.7321C110.825 12.6609 111.232 12.4831 111.526 12.1985C111.821 11.9038 111.968 11.5531 111.968 11.1466C111.968 10.74 111.821 10.425 111.526 10.2014C111.244 9.96761 110.837 9.77959 110.307 9.6373V12.7321Z" fill="#49AA26"/>
</svg>
